# xmcd
#
# Track frame offsets: 
#        150
#        22222
#        41062
#        59241
#        74101
#        90099
#        110333
#        127826
#        147634
#        163556
#        183804
#        202045
#        216217
#        240199
#        263588
#        285300
#
# Disc length: 4018 seconds
#
# Revision: 0
# Processed by: cddbd v1.5.1PL2 Copyright (c) Steve Scherf et al.
# Submitted via: ExactAudioCopy v0.95b4
#
DISCID=ea0fb010
DTITLE=Charlie Erwin - A Dream Come True Volume 2
DYEAR=2001
DGENRE=Country Swing
TTITLE0=My Shoes Keep Walking Back To You
TTITLE1=Dreams Of A Dreamer Gone Blind
TTITLE2=My Best To You
TTITLE3=Cielto Lindo
TTITLE4=Pshoolockah
TTITLE5=Misery
TTITLE6=Sugar Moon
TTITLE7=Tomorrow Night
TTITLE8=Time Changes Everything
TTITLE9=I Wonder If You Feel The Way I Do
TTITLE10=Mansion On The Hill
TTITLE11=Corrine, Corinna
TTITLE12=Grandpa's Barn
TTITLE13=Wills Point
TTITLE14=Milk Cow Blues
TTITLE15=Maiden's Prayer
EXTD=
EXTT0=
EXTT1=
EXTT2=
EXTT3=
EXTT4=
EXTT5=
EXTT6=
EXTT7=
EXTT8=
EXTT9=
EXTT10=
EXTT11=
EXTT12=
EXTT13=
EXTT14=
EXTT15=
PLAYORDER=
